# xmcd
#
# Track frame offsets:
#	150
#	15610
#	28665
#	44827
#
# Disc length: 835 seconds
#
# Revision: 0
# Processed by: cddbd v1.5.1PL0 Copyright (c) Steve Scherf et al.
# Submitted via: audiograbber 1.82.01
#
DISCID=2e034104
DTITLE=Kevin - The Sound Your Eyes Can Follow
DYEAR=1900
DGENRE=Progressive Rock
TTITLE0=Saturday Nite Cabin Fever
TTITLE1=Stand Me Up
TTITLE2=Teenybopper
TTITLE3=Catch-22 Man
EXTD=
EXTT0=
EXTT1=
EXTT2=
EXTT3=
PLAYORDER=
